<svg width="164" height="104" viewBox="0 0 164 104" fill="none" xmlns="http://www.w3.org/2000/svg">
<path d="M54.0588 1.83557C69.7754 -1.60747 87.4481 5.7277 95.8797 21.2962C106.133 13.8113 120.972 15.0838 129.741 25.0386C133.316 29.0056 135.677 34.3199 136.217 40.0083C146.065 41.3556 155.508 47.7926 160.297 57.6726C164.345 65.906 164.547 76.3848 160.635 84.7678C155.238 96.519 143.502 103.63 131.765 103.63H32.6087C21.1417 103.63 9.3374 96.7436 3.94115 85.2169C-0.106034 76.9835 -0.106034 66.5047 3.94115 58.1217C7.78598 49.589 15.4082 43.4514 23.5025 40.9065C23.5025 34.3198 24.8516 27.7332 27.8195 22.0447C33.2158 11.3413 43.3337 4.08103 53.9913 1.83557H54.0588ZM110.315 52.9572C105.863 54.6038 102.558 59.3941 102.49 64.7084C98.7127 66.2053 95.2726 69.7232 95.2726 74.4387C95.0702 80.4266 100.264 84.9175 105.391 84.9175H137.094C139.454 84.9175 141.815 84.3187 143.839 82.672C147.211 80.4266 148.83 75.4866 147.346 71.4447C146.132 67.4778 142.625 65.2323 139.252 64.409C138.577 62.3881 137.903 60.2175 136.217 58.945C133.316 56.4002 129.202 56.4002 126.099 58.3462C122.726 52.8075 115.981 50.4871 110.315 52.8823V52.9572Z" fill="#E4E3E3" stroke="#E4E3E3" stroke-width="0.1"/>
<path d="M109.715 53.3088C115.479 50.8137 122.425 53.1576 125.897 58.7527C129.162 56.7868 133.398 56.7868 136.315 59.3576C138.121 60.6429 138.816 62.8356 139.51 64.8771C142.983 65.6332 146.594 67.9015 147.845 71.9088C149.373 75.9917 147.636 80.9819 144.233 83.2502C142.149 84.9136 139.719 85.5185 137.288 85.5185H104.645C99.3662 85.5185 94.0182 80.9819 94.2266 74.9331C94.2266 70.1697 97.6993 66.6161 101.728 65.1039C101.728 59.8112 105.2 54.8966 109.715 53.1576V53.3088Z" fill="#ACA6A6" stroke="#ACA6A6" stroke-width="0.1"/>
</svg>
